<svg width="200" height="200" viewBox="0 0 200 200" fill="none" xmlns="http://www.w3.org/2000/svg">
<path d="M96.0349 117.415C93.6429 117.615 82.7592 119.09 58.3606 123.396C36.2429 127.299 19.0067 146.894 11.374 158.84C16.5025 161.926 25.6945 157.925 35.9697 153.453C43.1987 150.306 50.9638 146.926 58.2274 145.617C72.1532 135.43 85.9786 125.064 96.0349 117.415Z" fill="#FF8C22"/>
<path d="M36.8324 119.807C7.86801 145.151 8.32752 152.897 11.1182 158.678C11.2023 158.734 11.2876 158.788 11.374 158.84C19.0067 146.894 36.2429 127.299 58.3606 123.396C82.7592 119.09 93.6429 117.615 96.0349 117.415C85.9786 125.064 72.1532 135.43 58.2274 145.617C62.7334 144.804 67.0464 144.789 70.9187 146.12C86.0552 151.323 94.1045 162.602 111.583 165.854C137.297 170.638 167.25 159.3 180.354 129.974C205.307 74.1253 155.384 8.70377 89.693 38.4249C147.017 28.2274 152.169 98.6693 123.72 110.941C116.801 113.926 99.2214 110.272 101.407 95.3223C103.593 80.3722 106.122 39.9217 74.0741 49.5813C62.9819 58.7805 58.8992 66.8756 56.112 81.068C53.161 96.094 48.7824 109.351 36.8324 119.807Z" fill="#3F3D56"/>
<path d="M123.72 110.941C152.169 98.6693 147.017 28.2274 89.693 38.4249C86.4857 40.7634 78.0134 46.3143 74.0741 49.5813C106.122 39.9217 103.593 80.3722 101.407 95.3223C99.2214 110.272 116.801 113.926 123.72 110.941Z" fill="white"/>
<path d="M109.191 101.867C110.332 90.8598 120.931 86.9551 128.327 93.4954C128.327 104.857 116.367 109.043 109.191 101.867Z" fill="#3F3D56"/>
</svg>
